{"title":"Atlantis End Of A World Birth Of A Legend 2011 BRRip XviD Ac3 Fe","uid":6984334,"size":1365870369,"categoryP":"video","categoryS":"movies","magnet":"?xt=urn:btih:491bd0dbdc22ce0c94ed3e02e87c4ead0013b8c3&amp;dn=Atlantis+End+Of+A+World+Birth+Of+A+Legend+2011+BRRip+XviD+Ac3+Fe&amp;tr=udp%3A%2F%2Ftracker.openbittorrent.com%3A80&amp;tr=udp%3A%2F%2Fopen.demonii.com%3A1337&amp;tr=udp%3A%2F%2Ftracker.coppersurfer.tk%3A6969&amp;tr=udp%3A%2F%2Fexodus.desync.com%3A6969","seeders":1,"leechers":1,"uploader":".BONE.","files":9,"time":1327516064,"description":"\nGenre:Drama\nLanguage:English\n &lt;a href=&quot;\nhttp://www.imdb.com/title/tt1744825/&quot; rel=&quot;nofollow&quot; target=&quot;_NEW&quot;&gt;\nhttp://www.imdb.com/title/tt1744825/&lt;/a&gt;\n\nSource:720p.BluRay.x264.DTS-WiKi Thanks!\n\nFormat : AVI\nFormat/Info : Audio Video Interleave\nFile size : 1.27 GiB\nDuration : 1h 28mn\nOverall bit rate : 2 049 Kbps\n\nVideo\nID : 0\nFormat : MPEG-4 Visual\nFormat profile : Advanced Simple@L5\nFormat settings, BVOP : 1\nFormat settings, QPel : No\nFormat settings, GMC : No warppoints\nFormat settings, Matrix : Default (H.263)\nCodec ID : XVID\nCodec ID/Hint : XviD\nDuration : 1h 28mn\nBit rate : 1 591 Kbps\nWidth : 640 pixels\nHeight : 360 pixels\nDisplay aspect ratio : 16:9\nFrame rate : 25.000 fps\nColor space : YUV\nChroma subsampling : 4:2:0\nBit depth : 8 bits\nScan type : Progressive\nCompression mode : Lossy\nBits/(Pixel*Frame) : 0.276\nStream size : 1 011 MiB (78%)\nWriting library : XviD 1.2.1 (UTC 2008-12-04)\n\nAudio\nID : 1\nFormat : AC-3\nFormat/Info : Audio Coding 3\nMode extension : CM (complete main)\nCodec ID : 2000\nDuration : 1h 28mn\nBit rate mode : Constant\nBit rate : 448 Kbps\nChannel(s) : 6 channels\nChannel positions : Front: L C R, Side: L R, LFE\nSampling rate : 48.0 KHz\nBit depth : 16 bits\nCompression mode : Lossy\nStream size : 284 MiB (22%)\nAlignment : Aligned on interleaves\nInterleave, duration : 40 ms (1.00 video frame)\nInterleave, preload duration : 512 ms\n\n\nPlot:\nTells the story of the greatest natural disaster of the ancient world, an event that experts believe inspired the legend of Atlantis.\n","torrent":{"xt":"urn:btih:491bd0dbdc22ce0c94ed3e02e87c4ead0013b8c3","amp;dn":"Atlantis+End+Of+A+World+Birth+Of+A+Legend+2011+BRRip+XviD+Ac3+Fe","amp;tr":["udp%3A%2F%2Ftracker.openbittorrent.com%3A80","udp%3A%2F%2Fopen.demonii.com%3A1337","udp%3A%2F%2Ftracker.coppersurfer.tk%3A6969","udp%3A%2F%2Fexodus.desync.com%3A6969"],"infoHash":"491bd0dbdc22ce0c94ed3e02e87c4ead0013b8c3","infoHashBuffer":{"type":"Buffer","data":[73,27,208,219,220,34,206,12,148,237,62,2,232,124,78,173,0,19,184,195]},"announce":[],"urlList":[]}}